<?xml version="1.0" encoding="UTF-8" standalone="no"?>
<svg width="48px" height="61px" viewBox="0 0 48 61" version="1.1" xmlns="http://www.w3.org/2000/svg" xmlns:xlink="http://www.w3.org/1999/xlink" xmlns:sketch="http://www.bohemiancoding.com/sketch/ns">
    <!-- Generator: Sketch 3.3.3 (12072) - http://www.bohemiancoding.com/sketch -->
    <title>Imported Layers</title>
    <desc>Created with Sketch.</desc>
    <defs></defs>
    <g id="Page-1" stroke="none" stroke-width="1" fill="none" fill-rule="evenodd" sketch:type="MSPage">
        <g id="Contexter-alpha" sketch:type="MSArtboardGroup" transform="translate(-956.000000, -297.000000)" fill="#FFFFFF">
            <g id="Imported-Layers" sketch:type="MSLayerGroup" transform="translate(956.000000, 297.000000)">
                <path d="M22.4849231,56.9682297 C23.0674872,57.266223 23.3435897,57.8003851 23.3435897,58.4371757 C23.3333333,59.6901486 22.5772308,60.7069527 21.1150769,60.7069527 L17.7620513,60.7069527 L17.7620513,53.5176081 L20.8184615,53.5176081 C22.0553846,53.5176081 23.0469744,54.4828919 23.0469744,55.725973 C23.0469744,56.1570946 22.8328205,56.6809527 22.4849231,56.9682297 L22.4849231,56.9682297 Z M19.5306667,55.1608986 L19.5306667,56.3215473 L20.6855385,56.3215473 C21.4116923,56.3215473 21.4116923,55.1608986 20.6756923,55.1608986 L19.5306667,55.1608986 L19.5306667,55.1608986 Z M19.5306667,57.8514932 L19.5306667,59.0739662 L20.9924103,59.0739662 C21.7284103,59.0739662 21.7181538,57.8514932 20.9821538,57.8514932 L19.5306667,57.8514932 L19.5306667,57.8514932 Z" id="Fill-1" sketch:type="MSShapeGroup"></path>
                <path d="M30.0906667,60.4394595 L30.0906667,60.7069527 L28.0459487,60.7069527 L26.8192821,58.5913243 L25.8687179,58.5913243 L25.8687179,60.7069527 L24.0385641,60.7069527 L24.0385641,53.5176081 L27.1774359,53.5176081 C29.9881026,53.5279122 30.4992821,56.9274257 28.6900513,58.1597905 L30.0906667,60.4394595 L30.0906667,60.4394595 Z M27.1774359,55.1608986 C26.7478974,55.1505946 26.2978462,55.1608986 25.8687179,55.1608986 L25.8687179,56.9583378 L27.1774359,56.9583378 C28.1690256,56.9583378 28.2198974,55.1712027 27.1774359,55.1608986 L27.1774359,55.1608986 Z" id="Fill-2" sketch:type="MSShapeGroup"></path>
                <path d="M35.6545641,59.8026689 L32.8332308,59.8026689 L32.4139487,60.7069527 L30.6252308,60.7069527 L30.6252308,60.4394595 L33.8453333,53.4252838 L34.6322051,53.4252838 L37.8625641,60.4394595 L37.8625641,60.7069527 L36.0734359,60.7069527 L35.6545641,59.8026689 L35.6545641,59.8026689 Z M34.2338462,56.3421554 L33.4260513,58.2315068 L35.0613333,58.2315068 L34.2338462,56.3421554 L34.2338462,56.3421554 Z" id="Fill-3" sketch:type="MSShapeGroup"></path>
                <path d="M38.6404103,53.4866959 L40.449641,53.4866959 L40.449641,60.7069527 L38.6404103,60.7069527 L38.6404103,53.4866959 Z" id="Fill-4" sketch:type="MSShapeGroup"></path>
                <path d="M43.5963077,57.1738986 L43.5963077,60.7069527 L41.7054359,60.7069527 L41.7054359,53.4866959 L42.369641,53.4866959 L45.9885128,57.0403581 L45.9885128,53.5176081 L47.8592821,53.5176081 L47.8592821,60.7168446 L47.2049231,60.7168446 L43.5963077,57.1738986" id="Fill-5" sketch:type="MSShapeGroup"></path>
                <path d="M3.7854359,57.5901824 L3.83671795,57.5901824 L5.47733333,53.5110135 L7.24102564,53.5110135 L7.24102564,53.789223 L4.19528205,60.8046351 L3.41620513,60.8046351 L0.340102564,53.789223 L0.340102564,53.5110135 L2.10379487,53.5110135 L3.7854359,57.5901824" id="Fill-6" sketch:type="MSShapeGroup"></path>
                <path d="M11.166359,53.418277 C12.6121026,53.4289932 14.1197949,54.180777 14.4681026,55.9732703 L12.6633846,55.9732703 C12.366359,55.3554392 11.8945641,55.1077297 11.166359,55.1077297 C10.0077949,55.1077297 9.38215385,56.0144865 9.38215385,57.1166081 C9.38215385,58.3114662 10.0795897,59.0945743 11.166359,59.0945743 C11.9048205,59.0945743 12.3766154,58.8987973 12.7048205,58.2084257 L11.1766154,58.2084257 L11.1766154,56.6117095 L14.5706667,56.6117095 C14.6116923,57.3329932 14.6116923,58.0229527 14.3655385,58.7236284 C13.8531282,60.2276081 12.4894359,60.8046351 11.166359,60.8046351 C9.34153846,60.8046351 7.49579487,59.5788649 7.48553846,57.1166081 C7.49579487,54.6543514 9.34153846,53.418277 11.166359,53.418277" id="Fill-7" sketch:type="MSShapeGroup"></path>
                <path d="M34.8717949,11.4906689 L13.3275897,11.4906689 L2.55548718,30.2349797 L13.3275897,48.9792905 L34.8717949,48.9792905 L45.6438974,30.2349797 L34.8717949,11.4906689 L34.8717949,11.4906689 Z M30.9661538,23.2315203 L34.2802051,23.2315203 C34.4270769,23.2315203 34.5624615,23.3098311 34.6358974,23.4371892 L36.2925128,26.3210878 C36.3659487,26.4484459 36.3659487,26.6054797 36.2925128,26.7328378 L35.1093333,28.7924122 C34.9513846,29.0673243 34.5563077,29.0673243 34.398359,28.7924122 L32.9784615,26.3210878 C32.8205128,26.0461757 32.4258462,26.0461757 32.2678974,26.3210878 L30.1370256,30.0288986 C30.0184615,30.2353919 30.0184615,30.2353919 31.2024615,32.2949662 L31.5569231,32.9123851 C31.7148718,33.1868851 31.5175385,33.5306284 31.201641,33.5306284 L28.8348718,33.5306284 C28.6884103,33.5306284 28.5530256,33.4519054 28.48,33.3245473 L26.8225641,30.4410608 C26.7491282,30.3132905 26.7491282,30.1562568 26.8225641,30.0288986 L30.6108718,23.4371892 C30.6838974,23.3098311 30.8192821,23.2315203 30.9661538,23.2315203 L30.9661538,23.2315203 Z M18.2990769,22.6128649 L19.9565128,19.7297905 C20.0299487,19.6024324 20.1653333,19.5237095 20.3117949,19.5237095 L22.6785641,19.5237095 C22.9944615,19.5237095 23.1917949,19.8674527 23.0338462,20.1419527 L21.8186667,22.2559324 C21.7054359,22.4533581 21.7723077,22.7051892 21.9688205,22.8189459 L21.9688205,22.8193581 C22.1649231,22.9331149 22.416,22.8655203 22.5292308,22.6685068 L24.2182564,19.7297905 C24.2912821,19.6024324 24.4270769,19.5237095 24.5735385,19.5237095 L27.8875897,19.5237095 C28.0344615,19.5237095 28.1698462,19.6024324 28.2432821,19.7297905 L29.8998974,22.6128649 C29.9733333,22.7406351 29.9733333,22.8976689 29.8998974,23.025027 L26.5858462,28.792 C26.4278974,29.0669122 26.0332308,29.0669122 25.8752821,28.792 L24.6916923,26.7328378 C24.6186667,26.6054797 24.6186667,26.4484459 24.6916923,26.3210878 L26.3811282,23.3823716 C26.494359,23.1849459 26.4270769,22.9331149 26.2305641,22.8193581 L26.2305641,22.8189459 C26.0344615,22.7051892 25.7837949,22.7731959 25.6701538,22.9702095 L23.9815385,25.9089257 C23.9081026,26.0362838 23.7727179,26.1150068 23.6262564,26.1150068 L20.3117949,26.1150068 C20.1653333,26.1150068 20.0299487,26.0362838 19.9565128,25.9089257 L18.2990769,23.0254392 C18.2260513,22.8976689 18.2260513,22.7406351 18.2990769,22.6128649 L18.2990769,22.6128649 Z M15.5766154,33.5306284 L11.7887179,33.5306284 C11.6418462,33.5306284 11.5064615,33.4519054 11.4334359,33.3245473 L9.776,30.4410608 C9.7025641,30.3132905 9.7025641,30.1562568 9.776,30.0288986 L10.9587692,27.9713851 C11.1167179,27.696473 11.5113846,27.696473 11.6693333,27.9713851 L12.8832821,30.0841284 C12.9965128,30.2811419 13.2471795,30.3487365 13.4436923,30.2349797 L13.4436923,30.2345676 C13.6397949,30.1208108 13.7070769,29.8689797 13.5938462,29.6719662 L11.9048205,26.7328378 C11.8317949,26.6054797 11.8317949,26.4484459 11.9048205,26.3210878 L13.5618462,23.4371892 C13.6352821,23.3098311 13.7706667,23.2315203 13.9171282,23.2315203 L17.2315897,23.2315203 C17.3780513,23.2315203 17.5134359,23.3098311 17.5868718,23.4371892 L19.2451282,26.3227365 C19.3181538,26.4500946 19.3181538,26.6075405 19.2451282,26.7348986 L18.062359,28.7924122 C17.9044103,29.0669122 17.5097436,29.0669122 17.3517949,28.7924122 L16.1370256,26.6780203 C16.0237949,26.4805946 15.7727179,26.413 15.5766154,26.5267568 L15.5766154,26.5271689 C15.3801026,26.6409257 15.3132308,26.8927568 15.4264615,27.0901824 L17.3517949,30.4410608 C17.5097436,30.7155608 17.9044103,30.7155608 18.062359,30.4410608 L19.9565128,27.145 C20.0299487,27.0176419 20.1653333,26.9393311 20.3117949,26.9393311 L22.6785641,26.9393311 C22.9944615,26.9393311 23.1917949,27.2826622 23.0338462,27.5571622 L21.6135385,30.0288986 C21.5405128,30.1562568 21.5405128,30.3132905 21.6135385,30.4410608 L23.0338462,32.9123851 C23.1917949,33.1868851 22.9944615,33.5306284 22.6785641,33.5306284 L15.5766154,33.5306284 L15.5766154,33.5306284 Z M31.201641,40.94625 L24.5735385,40.94625 C24.4270769,40.94625 24.2912821,40.867527 24.2182564,40.7401689 L22.5608205,37.8566824 C22.4873846,37.7289122 22.4873846,37.5718784 22.5608205,37.4445203 L24.4549744,34.1488716 C24.528,34.0211014 24.528,33.8640676 24.4549744,33.7367095 L22.5608205,30.4410608 C22.4873846,30.3132905 22.4873846,30.1562568 22.5608205,30.0288986 L23.7444103,27.9693243 C23.902359,27.6948243 24.2970256,27.6948243 24.4549744,27.9697365 L25.8752821,30.4410608 L25.8752821,30.4406486 L27.7694359,33.7362973 C27.8424615,33.8640676 27.8424615,34.0211014 27.7690256,34.1484595 L25.8748718,37.4445203 C25.7169231,37.7194324 25.9146667,38.0627635 26.2301538,38.0627635 L30.0184615,38.0627635 C30.1649231,38.0627635 30.3003077,38.1410743 30.3737436,38.2688446 L31.5569231,40.3280068 C31.7148718,40.6029189 31.5175385,40.94625 31.201641,40.94625 L31.201641,40.94625 Z M36.2925128,34.1488716 L34.3987692,37.4445203 L34.398359,37.4445203 L32.9784615,39.9158446 C32.8205128,40.1907568 32.4254359,40.1907568 32.2678974,39.9158446 L30.8471795,37.4445203 C30.7741538,37.31675 30.638359,37.2384392 30.4918974,37.2384392 L27.6516923,37.2384392 C27.3357949,37.2384392 27.1384615,36.8946959 27.2964103,36.6201959 L28.48,34.5610338 C28.5530256,34.4332635 28.6884103,34.3549527 28.8352821,34.3549527 L32.6231795,34.3549527 C32.9390769,34.3549527 33.1380513,34.0140946 32.9801026,33.7391824 C32.4516923,32.8200608 31.4765128,31.1231892 31.0826667,30.4377635 C31.0100513,30.3112297 31.0108718,30.1566689 31.0834872,30.0301351 L32.2678974,27.9697365 C32.4258462,27.6948243 32.8205128,27.6948243 32.9784615,27.9697365 L34.398359,30.4410608 L34.3987692,30.4410608 L36.2925128,33.7367095 C36.3659487,33.8640676 36.3659487,34.0211014 36.2925128,34.1488716 L36.2925128,34.1488716 Z M37.2397949,32.500223 C37.0818462,32.774723 36.6871795,32.774723 36.5292308,32.4998108 L35.3460513,30.4410608 C35.2730256,30.3132905 35.2730256,30.1562568 35.3460513,30.0288986 L36.5292308,27.9697365 C36.6871795,27.6948243 37.0818462,27.6948243 37.2397949,27.9697365 L38.4233846,30.0288986 C38.4964103,30.1562568 38.4964103,30.3132905 38.4233846,30.4410608 L37.2397949,32.500223 L37.2397949,32.500223 Z" id="Fill-8" sketch:type="MSShapeGroup"></path>
                <path d="M4.34830769,3.38261486 C4.85046154,3.63897973 5.08882051,4.09854054 5.08882051,4.6479527 C5.07938462,5.72699324 4.42748718,6.60325 3.168,6.60325 L0.278974359,6.60325 L0.278974359,0.408864865 L2.91282051,0.408864865 C3.97866667,0.408864865 4.83241026,1.24102027 4.83241026,2.31181757 C4.83241026,2.68276351 4.64820513,3.13449324 4.34830769,3.38261486 L4.34830769,3.38261486 Z M1.80307692,1.82464189 L1.80307692,2.82495946 L2.79794872,2.82495946 C3.42317949,2.82495946 3.42317949,1.82464189 2.78933333,1.82464189 L1.80307692,1.82464189 L1.80307692,1.82464189 Z M1.80307692,4.14346622 L1.80307692,5.19612838 L3.0625641,5.19612838 C3.69641026,5.19612838 3.68779487,4.14346622 3.05394872,4.14346622 L1.80307692,4.14346622 L1.80307692,4.14346622 Z" id="Fill-11" sketch:type="MSShapeGroup"></path>
                <path d="M9.61230769,4.51523649 L9.61230769,0.408864865 L11.118359,0.408864865 L11.118359,4.5412027 C11.118359,5.90422297 9.94707692,6.69186486 8.67815385,6.69186486 C7.41907692,6.69186486 6.22974359,5.90422297 6.22974359,4.5412027 L6.22974359,0.408864865 L7.73579487,0.408864865 L7.73579487,4.51523649 C7.73579487,5.01972297 8.22071795,5.26743243 8.67815385,5.26743243 C9.13682051,5.26743243 9.61230769,5.01972297 9.61230769,4.51523649" id="Fill-12" sketch:type="MSShapeGroup"></path>
                <path d="M12.2244103,0.373418919 L13.7837949,0.373418919 L13.7837949,6.60325 L12.2244103,6.60325 L12.2244103,0.373418919 Z" id="Fill-13" sketch:type="MSShapeGroup"></path>
                <path d="M34.7626667,0.373418919 L36.3220513,0.373418919 L36.3220513,6.60325 L34.7626667,6.60325 L34.7626667,0.373418919 Z" id="Fill-14" sketch:type="MSShapeGroup"></path>
                <path d="M16.5238974,5.17881757 L18.7614359,5.17881757 L18.7614359,6.60325 L14.9390769,6.60325 L14.9390769,0.408864865 L16.5238974,0.408864865 L16.5238974,5.17881757" id="Fill-15" sketch:type="MSShapeGroup"></path>
                <path d="M18.6367179,1.82464189 L18.6367179,0.408864865 L23.2168205,0.408864865 L23.2168205,1.82464189 L21.7107692,1.82464189 L21.7107692,6.60325 L20.1517949,6.60325 L20.1517949,1.82464189 L18.6367179,1.82464189" id="Fill-16" sketch:type="MSShapeGroup"></path>
                <path d="M30.3552821,0.506135135 L31.4038974,3.79807432 L31.4305641,3.79807432 L31.7029744,2.745 L32.4869744,0.408864865 L34.0549744,0.408864865 L34.0549744,0.647918919 L31.9146667,6.66548649 L31.0071795,6.66548649 L30.0213333,3.68308108 L29.9946667,3.68308108 L29.0075897,6.66548649 L28.1357949,6.66548649 L25.9688205,0.647918919 L25.9688205,0.408864865 L27.5630769,0.408864865 L28.3556923,2.745 L28.6289231,3.79807432 L28.6555897,3.79807432 L29.6861538,0.506135135 L30.3552821,0.506135135" id="Fill-17" sketch:type="MSShapeGroup"></path>
                <path d="M37.2,1.82464189 L37.2,0.408864865 L41.7801026,0.408864865 L41.7801026,1.82464189 L40.2740513,1.82464189 L40.2740513,6.60325 L38.7146667,6.60325 L38.7146667,1.82464189 L37.2,1.82464189" id="Fill-18" sketch:type="MSShapeGroup"></path>
                <path d="M47.7981538,6.60325 L46.1866667,6.60325 L46.1866667,4.11667568 L44.2838974,4.11667568 L44.2838974,6.60325 L42.6715897,6.60325 L42.6715897,0.408864865 L44.2838974,0.408864865 L44.2838974,2.6567973 L46.1866667,2.6567973 L46.1866667,0.408864865 L47.7981538,0.408864865 L47.7981538,6.60325" id="Fill-19" sketch:type="MSShapeGroup"></path>
            </g>
        </g>
    </g>
</svg>